{"title":"BBC.Earth.The.Power.Of.The.Planet.1of5.Volcanoes.2007.BluRay","uid":5529709,"size":1119154931,"categoryP":"video","categoryS":"hd___tv_shows","magnet":"?xt=urn:btih:01172ef98b6960e8e60e4daa9696f7a56d41773e&amp;dn=BBC.Earth.The.Power.Of.The.Planet.1of5.Volcanoes.2007.BluRay&amp;tr=udp%3A%2F%2Ftracker.openbittorrent.com%3A80&amp;tr=udp%3A%2F%2Fopen.demonii.com%3A1337&amp;tr=udp%3A%2F%2Ftracker.coppersurfer.tk%3A6969&amp;tr=udp%3A%2F%2Fexodus.desync.com%3A6969","seeders":1,"leechers":0,"uploader":"DjAligator14","files":2,"time":1272893903,"description":"General\nComplete name                    : F:uploadBBC.Earth.The.Power.Of.The.Planet.1of5.Volcanoes.2007.BluRay.BRRip.AC3.XViD.RoSubbed-playOFFBBC.Earth.The.Power.Of.The.Planet.1of5.Volcanoes.2007.BluRay.BRRip.AC3.XViD.RoSubbed-playOFF.avi\nFormat                           : Matroska\nFile size                        : 1.04 GiB\nDuration                         : 59mn 16s\nOverall bit rate                 : 2 517 Kbps\nEncoded date                     : UTC 2010-01-31 21:13:35\nWriting application              : mkvmerge v3.1.0 ('Happy up here') built on Jan 19 2010 12:09:24\nWriting library                  : libebml v0.7.9 + libmatroska v0.8.1\n\nVideo\nID                               : 1\nFormat                           : MPEG-4 Visual\nFormat profile                   : Advanced Simple@L5\nFormat settings, BVOP            : Yes\nFormat settings, QPel            : No\nFormat settings, GMC             : No warppoints\nFormat settings, Matrix          : Custom\nCodec ID                         : XVID\nCodec ID/Hint                    : XviD\nDuration                         : 59mn 13s\nBit rate                         : 1 827 Kbps\nWidth                            : 720 pixels\nHeight                           : 400 pixels\nDisplay aspect ratio             : 16:9\nFrame rate                       : 23.976 fps\nResolution                       : 8 bits\nColorimetry                      : 4:2:0\nScan type                        : Progressive\nBits/(Pixel*Frame)               : 0.265\nStream size                      : 774 MiB (73%)\nWriting library                  : XviD 1.2.0.dev47 (UTC 2006-11-01)\n\nAudio\nID                               : 2\nFormat                           : AC-3\nFormat/Info                      : Audio Coding 3\nCodec ID                         : A_AC3\nDuration                         : 59mn 16s\nBit rate mode                    : Constant\nBit rate                         : 640 Kbps\nChannel(s)                       : 6 channels\nChannel positions                : Front: L C R, Surround: L R, LFE\nSampling rate                    : 48.0 KHz\nStream size                      : 271 MiB (25%)\nLanguage                         : English\n\nText\nID                               : 3\nFormat                           : UTF-8\nCodec ID                         : S_TEXT/UTF8\nCodec ID/Info                    : UTF-8 Plain Text\nLanguage                         : Romanian","torrent":{"xt":"urn:btih:01172ef98b6960e8e60e4daa9696f7a56d41773e","amp;dn":"BBC.Earth.The.Power.Of.The.Planet.1of5.Volcanoes.2007.BluRay","amp;tr":["udp%3A%2F%2Ftracker.openbittorrent.com%3A80","udp%3A%2F%2Fopen.demonii.com%3A1337","udp%3A%2F%2Ftracker.coppersurfer.tk%3A6969","udp%3A%2F%2Fexodus.desync.com%3A6969"],"infoHash":"01172ef98b6960e8e60e4daa9696f7a56d41773e","infoHashBuffer":{"type":"Buffer","data":[1,23,46,249,139,105,96,232,230,14,77,170,150,150,247,165,109,65,119,62]},"announce":[],"urlList":[]}}